<svg width="40" height="52" viewBox="0 0 40 52" fill="none" xmlns="http://www.w3.org/2000/svg">
<path d="M16.9769 2.93452H17.1135C17.3665 2.93452 17.6397 2.95995 17.9104 2.98284C19.103 3.06695 20.2873 3.24551 21.452 3.51685V0.653528C20.2527 0.352628 19.0296 0.157776 17.7965 0.0712015C17.3285 0.0356008 16.8302 0.0127146 16.3192 0H15.8917C13.4168 0.00930695 10.9526 0.327052 8.55545 0.945963C5.82521 1.62687 3.20457 2.69275 0.771484 4.11189V32.5086C3.11421 31.2357 5.60704 30.2643 8.19117 29.6173C10.2315 29.0967 12.3174 28.7765 14.4193 28.6612H14.5028C14.8545 28.6434 15.2061 28.6332 15.5678 28.6306V25.7216C12.8366 25.7567 10.1192 26.1178 7.47273 26.7972C6.49372 27.0515 5.54761 27.3261 4.65967 27.6313L3.64778 27.9746V5.83344L4.08036 5.62492C7.38159 4.05951 10.9521 3.14863 14.5964 2.94215C14.6267 2.93994 14.6572 2.93994 14.6875 2.94215C15.0897 2.92181 15.4945 2.91163 15.8917 2.91163H16.3268H16.347C16.557 2.91672 16.7669 2.92181 16.9769 2.93452Z" fill="#AFB1B8"/>
<path d="M24.1108 5.93234C23.4455 5.93234 22.7877 5.90946 22.1528 5.86114C21.3939 5.8052 20.6147 5.71365 19.876 5.58905C19.4257 5.51276 18.983 5.42122 18.553 5.32204V33.3932C20.3737 33.844 22.2433 34.0644 24.1184 34.0493C26.5931 34.0393 29.0571 33.7224 31.4546 33.1059C34.1853 32.4241 36.8067 31.3583 39.2411 29.94V2.04932C36.8986 3.32153 34.4068 4.29372 31.8239 4.94315C29.3031 5.59059 26.7125 5.92283 24.1108 5.93234ZM35.3352 6.41804L36.3471 6.07729V28.226L35.9145 28.4346C34.2552 29.224 32.5223 29.8467 30.7412 30.2934C28.5781 30.8531 26.3544 31.1409 24.1209 31.1504C23.4531 31.1504 22.7903 31.1224 22.1477 31.0665L21.4546 31.0054V28.3176V8.22859L22.2616 8.28199C22.8485 8.32014 23.4556 8.33794 24.1158 8.33794C26.9514 8.32785 29.7749 7.96571 32.5221 7.25974C33.4657 7.01054 34.4042 6.73082 35.3352 6.41804Z" fill="#AFB1B8"/>
<path d="M2.73726 42.2125C2.59178 42.0616 2.41641 41.9431 2.22248 41.8647C2.02856 41.7863 1.82042 41.7497 1.61153 41.7573C1.38892 41.7544 1.16793 41.7959 0.961389 41.8794C0.772023 41.9548 0.599889 42.0681 0.455444 42.2125C0.312573 42.3573 0.201414 42.5305 0.12911 42.7211C0.0498013 42.9208 0.0102645 43.1342 0.0127426 43.3492V47.1432C0.0036949 47.4106 0.0547102 47.6765 0.161996 47.9213C0.251555 48.1158 0.380847 48.2891 0.541455 48.4299C0.693075 48.5576 0.8711 48.6497 1.06258 48.6995C1.24706 48.7513 1.43768 48.7779 1.62924 48.7783C1.84053 48.7804 2.04965 48.7353 2.24143 48.6461C2.43107 48.5631 2.60289 48.4439 2.74737 48.2952C2.88826 48.1478 3.00064 47.9753 3.07877 47.7866C3.15985 47.5953 3.20117 47.3893 3.2002 47.1814V46.7567H2.20854V47.0949C2.21149 47.2104 2.19172 47.3253 2.15036 47.4331C2.11807 47.5139 2.06889 47.5867 2.00617 47.6467C1.94474 47.6963 1.87428 47.7335 1.79873 47.7561C1.73176 47.7784 1.66182 47.7904 1.59129 47.7917C1.50275 47.802 1.41308 47.7886 1.33134 47.7529C1.24961 47.7171 1.17871 47.6603 1.12582 47.5882C1.03234 47.4357 0.986517 47.2586 0.994276 47.0796V43.5424C0.988124 43.3463 1.02981 43.1516 1.1157 42.9754C1.16718 42.8953 1.24002 42.8314 1.3259 42.7909C1.41178 42.7505 1.50725 42.7351 1.60141 42.7465C1.68689 42.7435 1.77182 42.7613 1.84893 42.7985C1.92603 42.8357 1.99301 42.8912 2.04411 42.9601C2.15508 43.1058 2.2131 43.2853 2.20854 43.4687V43.7967H3.19008V43.4102C3.19207 43.1832 3.15085 42.9579 3.06865 42.7465C2.99539 42.5477 2.88264 42.3661 2.73726 42.2125Z" fill="#AFB1B8"/>
<path d="M8.62892 42.169C8.31271 41.902 7.91362 41.7545 7.50066 41.752C7.29868 41.7528 7.09838 41.7889 6.9087 41.8588C6.71613 41.9278 6.53841 42.0331 6.38505 42.169C6.22076 42.3167 6.08968 42.4978 6.00053 42.7005C5.90063 42.9322 5.85146 43.1828 5.85634 43.4354V47.0743C5.8495 47.3302 5.89873 47.5846 6.00053 47.8193C6.09028 48.015 6.22152 48.1886 6.38505 48.3279C6.53665 48.4687 6.71468 48.5776 6.9087 48.6483C7.09838 48.7181 7.29868 48.7543 7.50066 48.7551C7.70269 48.7547 7.90307 48.7186 8.09262 48.6483C8.28995 48.5766 8.47195 48.4679 8.62892 48.3279C8.7871 48.186 8.91454 48.0129 9.00332 47.8193C9.10512 47.5846 9.15435 47.3302 9.14751 47.0743V43.4354C9.15239 43.1828 9.10322 42.9322 9.00332 42.7005C8.91505 42.5 8.78775 42.3193 8.62892 42.169ZM8.16598 47.0743C8.17434 47.1713 8.16095 47.2689 8.1268 47.36C8.09265 47.4511 8.03861 47.5333 7.96866 47.6007C7.83768 47.7105 7.67251 47.7707 7.50193 47.7707C7.33135 47.7707 7.16617 47.7105 7.03519 47.6007C6.96524 47.5333 6.9112 47.4511 6.87705 47.36C6.8429 47.2689 6.82952 47.1713 6.83787 47.0743V43.4354C6.82952 43.3384 6.8429 43.2407 6.87705 43.1496C6.9112 43.0585 6.96524 42.9763 7.03519 42.909C7.16617 42.7991 7.33135 42.739 7.50193 42.739C7.67251 42.739 7.83768 42.7991 7.96866 42.909C8.03861 42.9763 8.09265 43.0585 8.1268 43.1496C8.16095 43.2407 8.17434 43.3384 8.16598 43.4354V47.0743Z" fill="#AFB1B8"/>
<path d="M16.3673 48.6993V41.8105H15.4136L14.1614 45.4571H14.1437L12.8813 41.8105H11.9377V48.6993H12.9218V44.5086H12.9395L13.9033 47.4711H14.3941L15.3655 44.5086H15.3832V48.6993H16.3673Z" fill="#AFB1B8"/>
<path d="M21.9579 42.2935C21.8064 42.1236 21.6151 41.9942 21.4014 41.9172C21.1711 41.8423 20.93 41.8062 20.688 41.8104H19.2258V48.6991H20.2074V46.0087H20.7133C21.0196 46.0227 21.3243 45.9579 21.5987 45.8206C21.8219 45.6967 22.0079 45.5149 22.1375 45.2942C22.2511 45.111 22.3276 44.907 22.3627 44.6941C22.4013 44.4348 22.4191 44.1729 22.4158 43.9108C22.4253 43.58 22.393 43.2494 22.3197 42.9267C22.2542 42.6884 22.1298 42.4705 21.9579 42.2935ZM21.452 44.394C21.4477 44.5187 21.4167 44.641 21.3609 44.7525C21.3048 44.8585 21.2161 44.9432 21.1079 44.9941C20.9625 45.0591 20.8039 45.0888 20.645 45.0806H20.1972V42.7386H20.7032C20.8555 42.7311 21.0074 42.7607 21.1459 42.825C21.2474 42.8832 21.328 42.9723 21.3761 43.0793C21.4297 43.2003 21.459 43.3308 21.4621 43.4633C21.4621 43.6082 21.4621 43.7608 21.4621 43.921C21.4621 44.0812 21.4722 44.2465 21.4621 44.394H21.452Z" fill="#AFB1B8"/>
<path d="M26.6077 41.8105H25.8032L24.2854 48.6993H25.2669L25.5553 47.2193H26.8935L27.1819 48.6993H28.1635L26.6077 41.8105ZM25.702 46.281L26.1852 43.7838H26.2029L26.6836 46.281H25.702Z" fill="#AFB1B8"/>
<path d="M32.9496 45.9606H32.9319L31.4494 41.8105H30.5059V48.6993H31.4874V44.5569H31.5076L33.0078 48.6993H33.9311V41.8105H32.9496V45.9606Z" fill="#AFB1B8"/>
<path d="M38.9476 41.8105L38.1583 44.5493H38.1381L37.3488 41.8105H36.3091L37.6574 45.7877V48.6993H38.639V45.7877L39.9873 41.8105H38.9476Z" fill="#AFB1B8"/>
<path d="M0 50.6447H0.473058V51.972H0.794333V50.6447H1.26486V50.3726H0V50.6447Z" fill="#AFB1B8"/>
<path d="M3.97672 50.3726L3.35693 51.972H3.69845L3.82999 51.6084H4.46748L4.60409 51.972H4.95319L4.31823 50.3726H3.97672ZM3.92612 51.3389L4.14368 50.7464L4.36123 51.3389H3.92612Z" fill="#AFB1B8"/>
<path d="M7.90793 51.3821H8.27727V51.5881C8.16941 51.6746 8.03576 51.722 7.89781 51.7229C7.8333 51.7265 7.76886 51.7145 7.70988 51.688C7.65091 51.6614 7.59911 51.6211 7.55883 51.5703C7.47402 51.4485 7.43217 51.3017 7.43993 51.1533C7.43993 50.7973 7.59424 50.6193 7.90034 50.6193C7.98091 50.6112 8.06168 50.6325 8.12804 50.6791C8.19439 50.7257 8.24194 50.7947 8.26209 50.8735L8.57831 50.8125C8.51001 50.4997 8.28486 50.3421 7.90034 50.3421C7.69468 50.3366 7.4947 50.4103 7.34127 50.5481C7.26069 50.6276 7.19834 50.7239 7.15858 50.8302C7.11882 50.9365 7.10261 51.0502 7.11107 51.1634C7.10175 51.3823 7.17493 51.5966 7.31598 51.7636C7.39434 51.8444 7.4892 51.9071 7.59401 51.9475C7.69883 51.9879 7.8111 52.0049 7.92311 51.9975C8.17338 52.0045 8.41652 51.9133 8.60108 51.7432V51.1126H7.90793V51.3821Z" fill="#AFB1B8"/>
<path d="M11.9227 50.3726H11.5989V51.972H12.7195V51.7H11.9227V50.3726Z" fill="#AFB1B8"/>
<path d="M15.3175 50.3726H14.9937V51.972H15.3175V50.3726Z" fill="#AFB1B8"/>
<path d="M18.6364 51.4406L17.9812 50.3726H17.6675V51.972H17.9685V50.9269L18.6111 51.972H18.9323V50.3726H18.6364V51.4406Z" fill="#AFB1B8"/>
<path d="M21.6368 51.2677H22.4337V50.9956H21.6368V50.6447H22.4944V50.3726H21.313V51.972H22.5273V51.7H21.6368V51.2677Z" fill="#AFB1B8"/>
<path d="M28.9121 51.0032H28.2822V50.3726H27.9609V51.972H28.2822V51.2728H28.9121V51.972H29.2334V50.3726H28.9121V51.0032Z" fill="#AFB1B8"/>
<path d="M31.9302 51.2677H32.7296V50.9956H31.9302V50.6447H32.7903V50.3726H31.6089V51.972H32.8206V51.7H31.9302V51.2677Z" fill="#AFB1B8"/>
<path d="M36.0233 51.2679C36.3015 51.2246 36.4432 51.0771 36.4432 50.8228C36.4513 50.7548 36.441 50.6859 36.4134 50.6232C36.3858 50.5606 36.3419 50.5065 36.2863 50.4668C36.1415 50.3941 35.9799 50.3616 35.8183 50.3727H35.1404V51.9722H35.4617V51.3035H35.5249C35.5934 51.2992 35.6619 51.3114 35.7247 51.3391C35.7717 51.368 35.8108 51.4082 35.8386 51.456L36.1877 51.9646H36.5722L36.3774 51.6518C36.2913 51.4974 36.1699 51.3658 36.0233 51.2679ZM35.6994 51.0466H35.4617V50.6448H35.7146C35.8248 50.6359 35.9357 50.6489 36.041 50.683C36.0644 50.7036 36.0828 50.7293 36.095 50.7581C36.1072 50.7869 36.1127 50.8181 36.1113 50.8494C36.1098 50.8807 36.1014 50.9112 36.0866 50.9387C36.0718 50.9663 36.051 50.9901 36.0258 51.0085C35.9202 51.0409 35.8096 51.0538 35.6994 51.0466Z" fill="#AFB1B8"/>
<path d="M39.1094 51.2677H39.9063V50.9956H39.1094V50.6447H39.9696V50.3726H38.7856V51.972H39.9999V51.7H39.1094V51.2677Z" fill="#AFB1B8"/>
</svg>
